<svg width="1071" height="368" viewBox="0 0 1071 368" fill="none" xmlns="http://www.w3.org/2000/svg">
<path d="M56.5 43V98.5H153.7V137.5H56.5V214H7.9V3.99999H166.6V43H56.5ZM365.102 175V214H202.502V3.99999H361.202V43H250.802V88.6H348.302V126.4H250.802V175H365.102ZM540.571 214L500.071 155.5H497.671H455.371V214H406.771V3.99999H497.671C516.271 3.99999 532.371 7.09999 545.971 13.3C559.771 19.5 570.371 28.3 577.771 39.7C585.171 51.1 588.871 64.6 588.871 80.2C588.871 95.8 585.071 109.3 577.471 120.7C570.071 131.9 559.471 140.5 545.671 146.5L592.771 214H540.571ZM539.671 80.2C539.671 68.4 535.871 59.4 528.271 53.2C520.671 46.8 509.571 43.6 494.971 43.6H455.371V116.8H494.971C509.571 116.8 520.671 113.6 528.271 107.2C535.871 100.8 539.671 91.8 539.671 80.2ZM764.177 214L723.677 155.5H721.277H678.977V214H630.377V3.99999H721.277C739.877 3.99999 755.977 7.09999 769.577 13.3C783.377 19.5 793.977 28.3 801.377 39.7C808.777 51.1 812.477 64.6 812.477 80.2C812.477 95.8 808.677 109.3 801.077 120.7C793.677 131.9 783.077 140.5 769.277 146.5L816.377 214H764.177ZM763.277 80.2C763.277 68.4 759.477 59.4 751.877 53.2C744.277 46.8 733.177 43.6 718.577 43.6H678.977V116.8H718.577C733.177 116.8 744.277 113.6 751.877 107.2C759.477 100.8 763.277 91.8 763.277 80.2ZM955.682 217.6C933.882 217.6 914.182 212.9 896.582 203.5C879.182 194.1 865.482 181.2 855.482 164.8C845.682 148.2 840.782 129.6 840.782 109C840.782 88.4 845.682 69.9 855.482 53.5C865.482 36.9 879.182 23.9 896.582 14.5C914.182 5.1 933.882 0.399996 955.682 0.399996C977.482 0.399996 997.082 5.1 1014.48 14.5C1031.88 23.9 1045.58 36.9 1055.58 53.5C1065.58 69.9 1070.58 88.4 1070.58 109C1070.58 129.6 1065.58 148.2 1055.58 164.8C1045.58 181.2 1031.88 194.1 1014.48 203.5C997.082 212.9 977.482 217.6 955.682 217.6ZM955.682 176.2C968.082 176.2 979.282 173.4 989.282 167.8C999.282 162 1007.08 154 1012.68 143.8C1018.48 133.6 1021.38 122 1021.38 109C1021.38 96 1018.48 84.4 1012.68 74.2C1007.08 64 999.282 56.1 989.282 50.5C979.282 44.7 968.082 41.8 955.682 41.8C943.282 41.8 932.082 44.7 922.082 50.5C912.082 56.1 904.182 64 898.382 74.2C892.782 84.4 889.982 96 889.982 109C889.982 122 892.782 133.6 898.382 143.8C904.182 154 912.082 162 922.082 167.8C932.082 173.4 943.282 176.2 955.682 176.2ZM66.25 312.85C73.15 314.35 78.45 317.35 82.15 321.85C85.95 326.25 87.85 331.95 87.85 338.95C87.85 347.95 84.5 354.9 77.8 359.8C71.2 364.6 61.4 367 48.4 367H0.100001V262H45.4C57.1 262 66.15 264.35 72.55 269.05C79.05 273.75 82.3 280.4 82.3 289C82.3 294.8 80.85 299.75 77.95 303.85C75.15 307.85 71.25 310.85 66.25 312.85ZM11.2 271.15V309.25H44.65C53.15 309.25 59.7 307.65 64.3 304.45C68.9 301.15 71.2 296.4 71.2 290.2C71.2 284 68.9 279.3 64.3 276.1C59.7 272.8 53.15 271.15 44.65 271.15H11.2ZM48.25 357.85C57.65 357.85 64.75 356.25 69.55 353.05C74.35 349.85 76.75 344.85 76.75 338.05C76.75 324.95 67.25 318.4 48.25 318.4H11.2V357.85H48.25ZM114.686 262H125.786V357.4H184.586V367H114.686V262ZM248.365 367.9C237.965 367.9 228.515 365.6 220.015 361C211.615 356.3 205.015 349.9 200.215 341.8C195.515 333.7 193.165 324.6 193.165 314.5C193.165 304.4 195.515 295.3 200.215 287.2C205.015 279.1 211.615 272.75 220.015 268.15C228.515 263.45 237.965 261.1 248.365 261.1C258.765 261.1 268.115 263.4 276.415 268C284.815 272.6 291.415 279 296.215 287.2C301.015 295.3 303.415 304.4 303.415 314.5C303.415 324.6 301.015 333.75 296.215 341.95C291.415 350.05 284.815 356.4 276.415 361C268.115 365.6 258.765 367.9 248.365 367.9ZM248.365 358C256.665 358 264.165 356.15 270.865 352.45C277.565 348.65 282.815 343.45 286.615 336.85C290.415 330.15 292.315 322.7 292.315 314.5C292.315 306.3 290.415 298.9 286.615 292.3C282.815 285.6 277.565 280.4 270.865 276.7C264.165 272.9 256.665 271 248.365 271C240.065 271 232.515 272.9 225.715 276.7C219.015 280.4 213.715 285.6 209.815 292.3C206.015 298.9 204.115 306.3 204.115 314.5C204.115 322.7 206.015 330.15 209.815 336.85C213.715 343.45 219.015 348.65 225.715 352.45C232.515 356.15 240.065 358 248.365 358ZM375.395 367.9C364.995 367.9 355.595 365.6 347.195 361C338.895 356.4 332.345 350.05 327.545 341.95C322.845 333.75 320.495 324.6 320.495 314.5C320.495 304.4 322.845 295.3 327.545 287.2C332.345 279 338.945 272.6 347.345 268C355.745 263.4 365.145 261.1 375.545 261.1C383.345 261.1 390.545 262.4 397.145 265C403.745 267.6 409.345 271.4 413.945 276.4L406.895 283.45C398.695 275.15 388.345 271 375.845 271C367.545 271 359.995 272.9 353.195 276.7C346.395 280.5 341.045 285.7 337.145 292.3C333.345 298.9 331.445 306.3 331.445 314.5C331.445 322.7 333.345 330.1 337.145 336.7C341.045 343.3 346.395 348.5 353.195 352.3C359.995 356.1 367.545 358 375.845 358C388.445 358 398.795 353.8 406.895 345.4L413.945 352.45C409.345 357.45 403.695 361.3 396.995 364C390.395 366.6 383.195 367.9 375.395 367.9ZM471.658 317.65L450.208 339.4V367H439.108V262H450.208V325.45L511.858 262H524.608L479.158 309.55L527.758 367H514.558L471.658 317.65ZM574.001 367.9C566.201 367.9 558.701 366.65 551.501 364.15C544.401 361.65 538.901 358.35 535.001 354.25L539.351 345.7C543.151 349.5 548.201 352.6 554.501 355C560.801 357.3 567.301 358.45 574.001 358.45C583.401 358.45 590.451 356.75 595.151 353.35C599.851 349.85 602.201 345.35 602.201 339.85C602.201 335.65 600.901 332.3 598.301 329.8C595.801 327.3 592.701 325.4 589.001 324.1C585.301 322.7 580.151 321.2 573.551 319.6C565.651 317.6 559.351 315.7 554.651 313.9C549.951 312 545.901 309.15 542.501 305.35C539.201 301.55 537.551 296.4 537.551 289.9C537.551 284.6 538.951 279.8 541.751 275.5C544.551 271.1 548.851 267.6 554.651 265C560.451 262.4 567.651 261.1 576.251 261.1C582.251 261.1 588.101 261.95 593.801 263.65C599.601 265.25 604.601 267.5 608.801 270.4L605.051 279.25C600.651 276.35 595.951 274.2 590.951 272.8C585.951 271.3 581.051 270.55 576.251 270.55C567.051 270.55 560.101 272.35 555.401 275.95C550.801 279.45 548.501 284 548.501 289.6C548.501 293.8 549.751 297.2 552.251 299.8C554.851 302.3 558.051 304.25 561.851 305.65C565.751 306.95 570.951 308.4 577.451 310C585.151 311.9 591.351 313.8 596.051 315.7C600.851 317.5 604.901 320.3 608.201 324.1C611.501 327.8 613.151 332.85 613.151 339.25C613.151 344.55 611.701 349.4 608.801 353.8C606.001 358.1 601.651 361.55 595.751 364.15C589.851 366.65 582.601 367.9 574.001 367.9Z" fill="#913E39"/>
</svg>
